<svg xmlns="http://www.w3.org/2000/svg"  viewBox="0 0 50 50" width="100px" height="100px"><path d="M 37.380859 5.578125 A 1.0001 1.0001 0 0 0 36.632812 7.1875 C 39.370449 10.734872 41 15.170387 41 20 C 41 31.609534 31.609534 41 20 41 C 15.170387 41 10.734872 39.370449 7.1875 36.632812 A 1.0001 1.0001 0 0 0 5.7851562 38.035156 C 9.9898936 43.484696 16.589097 47 24 47 C 36.690466 47 47 36.690466 47 24 C 47 16.589097 43.484696 9.9898935 38.035156 5.7851562 A 1.0001 1.0001 0 0 0 37.380859 5.578125 z M 10.210938 9 A 1.0001 1.0001 0 0 0 9.5117188 9.2851562 C 6.732183 12.005803 5 15.80534 5 20 C 5 25.511036 7.9886514 30.326871 12.423828 32.931641 A 1.0001 1.0001 0 0 0 13.792969 31.564453 C 12.659045 29.632411 12 27.398421 12 25 C 12 21.455226 13.417465 18.256792 15.714844 15.910156 A 1.0001 1.0001 0 0 0 16 15.210938 L 16 10 A 1.0001 1.0001 0 0 0 15 9 L 10.210938 9 z M 26 9 A 1.0001 1.0001 0 0 0 25 10 L 25 16.5 C 25 18.444423 23.444423 20 21.5 20 C 21.4722 20 21.365968 19.981624 21.152344 19.958984 A 1.0001 1.0001 0 0 0 20.050781 21.054688 C 20.332208 23.819008 22.661559 26 25.5 26 C 28.525577 26 31 23.525577 31 20.5 L 31 16 L 32 16 A 1.0001 1.0001 0 0 0 32.927734 14.628906 L 30.927734 9.6289062 A 1.0001 1.0001 0 0 0 30 9 L 27 9 L 26 9 z M 10.714844 11 L 14 11 L 14 14.863281 C 11.537105 17.534646 10 21.083488 10 25 C 10 26.317854 10.196917 27.587721 10.519531 28.804688 C 8.3616757 26.489237 7 23.421554 7 20 C 7 16.479455 8.446094 13.340548 10.714844 11 z M 27 11 L 29.324219 11 L 30.523438 14 L 30 14 A 1.0001 1.0001 0 0 0 29 15 L 29 20.5 C 29 22.444423 27.444423 24 25.5 24 C 24.061591 24 23.044526 23.028606 22.509766 21.794922 C 25.039352 21.30298 27 19.16811 27 16.5 L 27 11 z M 41.957031 13.332031 C 43.829757 16.470767 45 20.074071 45 24 C 45 35.609534 35.609534 45 24 45 C 20.074071 45 16.470767 43.829757 13.332031 41.957031 C 15.449699 42.601247 17.674218 43 20 43 C 32.690466 43 43 32.690466 43 20 C 43 17.674218 42.601247 15.449699 41.957031 13.332031 z"/></svg>